<svg width="9" height="12" viewBox="0 0 9 12" fill="none" xmlns="http://www.w3.org/2000/svg">
<g clip-path="url(#clip0)">
<path d="M7.25336 0.151192C7.60966 0.151192 7.89847 0.440032 7.89847 0.796301C7.89847 1.1526 7.60966 1.44144 7.25336 1.44144C6.89706 1.44144 6.60822 1.1526 6.60822 0.796301C6.60822 0.439998 6.89702 0.151192 7.25336 0.151192Z" fill="white"/>
<path d="M4.29872 2.24286C6.34584 2.24286 8.00534 3.32589 8.00534 4.66192C8.00534 5.99796 6.34584 7.08102 4.29872 7.08102C2.25166 7.08102 0.592163 5.99796 0.592163 4.66192C0.592163 3.32589 2.25166 2.24286 4.29872 2.24286Z" fill="white"/>
<path d="M4.29872 7.08101C3.67095 7.08101 3.07979 6.97899 2.5616 6.79926C2.48654 7.21587 2.44543 7.66669 2.44543 8.13741C2.44543 9.93103 3.0415 11.4324 3.84594 11.8513H4.75156C5.55566 11.4324 6.15203 9.93106 6.15203 8.13741C6.15203 7.66669 6.11092 7.21583 6.03586 6.79926C5.51768 6.97899 4.92648 7.08101 4.29872 7.08101Z" fill="white"/>
<path d="M5.9158 10.9178C5.78104 10.9178 5.65325 10.9415 5.53798 10.9837C5.37967 11.2779 5.19674 11.5166 4.99634 11.6852C4.99886 11.7424 5.01052 11.797 5.02773 11.8501H6.8044C6.82323 11.7904 6.83681 11.7289 6.83681 11.6638C6.83681 11.2522 6.42457 10.9178 5.9158 10.9178Z" fill="white"/>
<path d="M3.05682 10.9788C2.94495 10.9397 2.82166 10.9178 2.69201 10.9178C2.18351 10.9178 1.77158 11.2522 1.77158 11.6638C1.77158 11.7289 1.78492 11.7904 1.80428 11.8501H3.58008C3.59621 11.7996 3.60787 11.7478 3.61127 11.6937C3.40576 11.5238 3.21836 11.2803 3.05682 10.9788Z" fill="white"/>
<path d="M2.44551 8.13741C2.44551 7.74864 2.47398 7.37375 2.52601 7.02013C1.98397 7.22561 1.59079 7.83671 1.59079 8.55872C1.59079 9.36555 2.08175 10.0339 2.72272 10.1525C2.54706 9.56753 2.44551 8.87741 2.44551 8.13741Z" fill="white"/>
<path d="M6.07098 7.01563C6.12345 7.37052 6.15212 7.74696 6.15212 8.13741C6.15212 8.87825 6.05034 9.56908 5.87424 10.1545C6.5213 10.0423 7.01864 9.37076 7.01864 8.55872C7.01864 7.8312 6.61941 7.21641 6.07094 7.01563" fill="white"/>
<path d="M1.59418 3.00796C1.44406 2.83072 1.21999 2.71805 0.969507 2.71805C0.51754 2.71805 0.151154 3.08443 0.151154 3.53643C0.151154 3.87005 0.350885 4.15684 0.637204 4.28427C0.754851 3.79459 1.09761 3.35368 1.59418 3.00796Z" fill="white"/>
<path d="M7.66378 2.71805C7.4059 2.71805 7.17605 2.83744 7.02603 3.02386C7.51494 3.37035 7.85087 3.81022 7.96365 4.29788C8.26721 4.17822 8.48213 3.88252 8.48213 3.53643C8.48213 3.08447 8.11575 2.71805 7.66378 2.71805Z" fill="white"/>
<path d="M8.60242 3.53644C8.60242 3.01883 8.18131 2.59772 7.66373 2.59772C7.41834 2.59729 7.18264 2.69345 7.0076 2.86542C7.0002 2.86051 6.99297 2.8555 6.98548 2.85063C6.31173 2.41086 5.43196 2.15617 4.49069 2.12565L5.02985 0.421416L6.48867 0.764811C6.48827 0.775231 6.4879 0.785752 6.4879 0.796306C6.4879 1.21839 6.83126 1.56179 7.25334 1.56179C7.67543 1.56179 8.01879 1.21839 8.01879 0.796306C8.01879 0.374256 7.67543 0.0308609 7.25334 0.0308609C6.92534 0.0308609 6.64501 0.238256 6.53623 0.528777L4.97634 0.161584C4.94679 0.15465 4.91572 0.159125 4.88933 0.174113C4.86295 0.189101 4.84319 0.213498 4.83402 0.242424L4.23909 2.123C3.24823 2.13295 2.31731 2.39032 1.61207 2.85063L1.61092 2.8514C1.43719 2.68835 1.20784 2.59763 0.969579 2.59772C0.451898 2.59772 0.0308228 3.01883 0.0308228 3.53647C0.0308228 3.87355 0.212403 4.18222 0.500268 4.34871C0.481349 4.45206 0.47182 4.55692 0.471798 4.66199C0.471798 5.35012 0.876739 5.99342 1.61203 6.47328C1.85825 6.63395 2.13203 6.76992 2.42618 6.8793C2.42309 6.89795 2.41973 6.91644 2.41677 6.93516C1.8479 7.18686 1.47039 7.82895 1.47039 8.55876C1.47039 8.97137 1.59405 9.37096 1.81855 9.6839C2.02901 9.97728 2.31516 10.1781 2.63032 10.2556C2.6919 10.4511 2.76188 10.6355 2.83946 10.8063C2.79052 10.8005 2.74128 10.7975 2.692 10.7975C2.11812 10.7975 1.65119 11.1862 1.65119 11.6639C1.65119 11.7343 1.66386 11.8074 1.68981 11.8873C1.69767 11.9115 1.71297 11.9325 1.73352 11.9475C1.75408 11.9624 1.77883 11.9705 1.80423 11.9705H3.81418L3.81647 11.9717H4.78101L4.78329 11.9705H6.80447C6.83007 11.9705 6.85499 11.9623 6.87563 11.9471C6.89627 11.932 6.91154 11.9107 6.91923 11.8863C6.94511 11.8039 6.95714 11.7332 6.95714 11.6639C6.95714 11.1862 6.49002 10.7975 5.9158 10.7975C5.86235 10.7975 5.80948 10.8009 5.75738 10.8075C5.83482 10.6372 5.90474 10.4533 5.96628 10.2583C6.28427 10.1837 6.57338 9.98394 6.78645 9.68965C7.01375 9.37577 7.13889 8.97419 7.13889 8.55876C7.13889 7.82148 6.75633 7.17732 6.1798 6.92975C6.17711 6.91284 6.17408 6.89614 6.17133 6.8793C6.46551 6.76992 6.73926 6.63399 6.98544 6.47325C7.72074 5.99342 8.12568 5.35012 8.12568 4.66195C8.1256 4.56324 8.11713 4.46471 8.10037 4.36743C8.40833 4.20642 8.60242 3.89029 8.60242 3.53644ZM7.25334 0.271567C7.54269 0.271567 7.77812 0.506928 7.77812 0.796306C7.77812 1.08572 7.54269 1.32111 7.25334 1.32111C6.964 1.32111 6.72854 1.08572 6.72854 0.796306C6.72854 0.506928 6.964 0.271567 7.25334 0.271567ZM0.271529 3.53641C0.271529 3.1515 0.584671 2.83836 0.969545 2.83836C1.13096 2.83836 1.28534 2.89399 1.40864 2.99399C0.987999 3.31392 0.700134 3.69365 0.56326 4.1039C0.47309 4.03925 0.399603 3.95406 0.348875 3.85538C0.298147 3.7567 0.271634 3.64736 0.271529 3.53641ZM4.08867 7.19745C4.11852 7.19849 4.14844 7.1993 4.17842 7.1999C4.18427 7.20004 4.19005 7.20024 4.1959 7.20034C4.26448 7.20155 4.33307 7.20155 4.40165 7.20034C4.4075 7.20024 4.41334 7.20004 4.41919 7.1999C4.44914 7.1993 4.47902 7.19849 4.50884 7.19745L4.51674 7.19711C5.0164 7.17873 5.49828 7.09708 5.94077 6.95805L5.95186 7.03321C5.97846 7.21382 5.99837 7.39534 6.01153 7.57742L6.01207 7.58555C6.01512 7.62821 6.01785 7.67093 6.02017 7.71372C6.02067 7.72289 6.02104 7.73204 6.02151 7.74121C6.02339 7.77819 6.02514 7.8151 6.02649 7.85214C6.02716 7.8717 6.02763 7.89143 6.02817 7.9111C6.02894 7.93839 6.02988 7.96568 6.03039 7.99311C6.03126 8.04108 6.03173 8.08918 6.03173 8.13738C6.03173 8.18579 6.03119 8.23399 6.03032 8.28209C6.02991 8.304 6.02924 8.32589 6.02864 8.3478C6.02805 8.37189 6.02734 8.39599 6.02652 8.42007C6.02496 8.46281 6.02307 8.50553 6.02084 8.54824C5.99146 9.10572 5.90252 9.64216 5.75916 10.1191C5.72398 10.2364 5.68456 10.3524 5.64097 10.4668C5.5757 10.6374 5.50356 10.7948 5.42591 10.9377C5.42208 10.9448 5.41818 10.9519 5.41428 10.9589C5.40844 10.9694 5.40262 10.98 5.39674 10.9904L5.39025 11.0017C5.26615 11.2183 5.12887 11.3985 4.98302 11.5359L4.97707 11.5414C4.95955 11.5579 4.94162 11.5738 4.92329 11.5893C4.85802 11.6448 4.79123 11.6918 4.72333 11.7297H3.87422C3.80995 11.6938 3.74676 11.6498 3.68487 11.5983C3.67714 11.5919 3.66948 11.5853 3.66178 11.5786C3.65761 11.575 3.65338 11.5714 3.64924 11.5677C3.64417 11.5632 3.63916 11.5586 3.63408 11.554C3.48047 11.414 3.336 11.2269 3.20608 10.9998C3.20434 10.9967 3.20252 10.9936 3.20071 10.9904C3.19425 10.979 3.18786 10.9675 3.18144 10.9559L3.17123 10.9372C3.09365 10.7945 3.02165 10.6372 2.95644 10.4669C2.91272 10.352 2.87319 10.2356 2.83792 10.1178C2.69482 9.64132 2.60605 9.10518 2.57674 8.54814C2.57607 8.5356 2.57539 8.52313 2.57486 8.51056C2.57226 8.45624 2.57026 8.4019 2.56887 8.34753C2.56834 8.32569 2.56766 8.30387 2.56726 8.28199C2.56634 8.23379 2.56586 8.18559 2.56581 8.13738C2.56581 8.08928 2.56632 8.04132 2.56716 7.99342C2.5677 7.96669 2.56857 7.94007 2.56931 7.91342C2.56988 7.89318 2.57032 7.87291 2.57106 7.85271C2.5724 7.81668 2.57408 7.78068 2.57593 7.74468C2.5764 7.73473 2.57681 7.72474 2.57731 7.71479C2.5796 7.67298 2.58225 7.63127 2.58521 7.58965L2.58592 7.57906C2.59916 7.39621 2.61886 7.2153 2.64504 7.03765L2.65455 6.97318C2.65529 6.96814 2.65597 6.9631 2.65677 6.95805C3.09929 7.09708 3.58124 7.17873 4.08097 7.19715L4.08867 7.19745ZM2.54864 9.97684C2.05956 9.77886 1.71109 9.2072 1.71109 8.55869C1.71109 7.98589 1.9719 7.47768 2.37731 7.22713C2.37322 7.26261 2.36938 7.29812 2.36578 7.33365L2.3638 7.35382C2.35812 7.41113 2.35311 7.46868 2.34867 7.52646C2.34736 7.54343 2.34602 7.56041 2.34484 7.57742C2.34088 7.63391 2.33756 7.69046 2.33486 7.74703C2.33378 7.76932 2.33267 7.7916 2.3318 7.81392C2.3295 7.87095 2.32782 7.92801 2.32676 7.98508C2.32581 8.03584 2.32514 8.08659 2.32514 8.13738C2.32519 8.21172 2.32625 8.28606 2.32834 8.36037C2.32854 8.36837 2.32871 8.37641 2.32894 8.38441C2.32998 8.41758 2.33123 8.45063 2.33264 8.48367L2.33462 8.52501C2.3356 8.54498 2.33664 8.56488 2.33775 8.58474C2.33869 8.60142 2.3396 8.61809 2.34064 8.63476C2.34141 8.64696 2.34228 8.65916 2.34313 8.6714C2.34581 8.71187 2.34881 8.75224 2.35213 8.79247L2.35314 8.80458C2.38753 9.21392 2.45321 9.60965 2.54864 9.97684ZM3.32383 11.7297H1.89765C1.89389 11.7079 1.89197 11.6859 1.89193 11.6638C1.89193 11.3188 2.25082 11.0381 2.69203 11.0381C2.78931 11.0381 2.88397 11.0517 2.97405 11.0785C3.11274 11.329 3.2676 11.536 3.43553 11.6972L3.44776 11.709C3.45499 11.7158 3.46212 11.7231 3.46941 11.7297H3.32383ZM6.71654 11.6638C6.71654 11.6847 6.71462 11.7065 6.71065 11.7297H5.12807C5.13519 11.7233 5.14212 11.7161 5.14921 11.7095L5.16286 11.6964C5.32951 11.5361 5.48333 11.3307 5.62114 11.0825C5.71656 11.0528 5.81594 11.0378 5.91586 11.0381C6.35734 11.0381 6.71654 11.3188 6.71654 11.6638ZM6.21939 7.22041C6.62729 7.46874 6.89825 7.98844 6.89825 8.55869C6.89825 9.21493 6.54397 9.78928 6.04753 9.98189C6.14353 9.61392 6.20961 9.21718 6.2442 8.80676C6.24752 8.76756 6.25053 8.72833 6.25324 8.68908C6.25452 8.67103 6.2558 8.65298 6.25694 8.63486C6.25791 8.61883 6.25882 8.60276 6.25973 8.58673C6.26084 8.56622 6.26191 8.54568 6.26292 8.52505C6.26521 8.47828 6.26709 8.4315 6.26857 8.38471C6.26881 8.37705 6.26897 8.36931 6.26918 8.36162C6.26998 8.33281 6.27062 8.3039 6.27112 8.27493L6.2716 8.24478C6.27207 8.20908 6.2724 8.17328 6.2724 8.13738C6.27236 8.07146 6.27149 8.00554 6.26981 7.93963C6.26881 7.89822 6.26746 7.85691 6.26585 7.8156C6.26497 7.79379 6.26393 7.77207 6.26289 7.75029C6.26134 7.71819 6.25966 7.68609 6.25775 7.65412C6.25617 7.62824 6.25449 7.60242 6.2527 7.57664C6.25136 7.55775 6.24988 7.53889 6.2484 7.52004C6.24403 7.4635 6.23906 7.40716 6.23351 7.35113C6.23274 7.3434 6.23203 7.33574 6.23123 7.32804C6.22755 7.29213 6.2236 7.25626 6.21939 7.22041ZM6.07734 6.65745L5.99644 6.68552C5.54501 6.84212 5.04188 6.93442 4.52887 6.95577L4.51301 6.95644C4.48403 6.95752 4.45502 6.95836 4.42602 6.95903C4.41845 6.9592 4.41089 6.95943 4.40329 6.95957C4.33361 6.96091 4.2639 6.96091 4.19422 6.95957C4.18665 6.95943 4.17916 6.95923 4.1716 6.95903C4.14255 6.95836 4.11351 6.95752 4.08447 6.95644L4.06881 6.95577C3.5558 6.93442 3.0526 6.84216 2.60111 6.68552L2.52064 6.65762C1.44128 6.26098 0.712503 5.51496 0.712503 4.66189C0.712503 4.54868 0.725579 4.43742 0.750352 4.32854L0.754251 4.31234C0.862386 3.86226 1.1766 3.44531 1.66296 3.10669L1.74087 3.05244C2.392 2.62733 3.29812 2.36313 4.29876 2.36313C5.31076 2.36313 6.22602 2.63331 6.87869 3.06689L6.9564 3.12195C7.43506 3.46125 7.74282 3.87725 7.84639 4.32498L7.84706 4.32787C7.8722 4.43743 7.88494 4.54948 7.88504 4.66189C7.88504 5.51486 7.1565 6.26074 6.07734 6.65745ZM8.0407 4.12414C7.90867 3.71224 7.62474 3.33052 7.20736 3.00827C7.33398 2.8984 7.49608 2.83804 7.66373 2.83836C8.0486 2.83836 8.36175 3.1515 8.36175 3.53641C8.36175 3.77889 8.23919 3.99758 8.0407 4.12414Z" fill="black"/>
<path d="M3.01484 3.58633C2.68563 3.58633 2.40942 3.86253 2.40942 4.19171C2.40942 4.52099 2.68563 4.78818 3.01487 4.78818C3.34405 4.78818 3.61124 4.52095 3.61124 4.19174C3.61124 3.86253 3.34405 3.58636 3.01487 3.58636" fill="#FF4500"/>
<path d="M5.62752 3.58633C5.29811 3.58633 5.02133 3.86236 5.02133 4.19171C5.02133 4.52112 5.29811 4.78818 5.62752 4.78818C5.95693 4.78818 6.22392 4.52116 6.22392 4.19174C6.22392 3.86236 5.95693 3.58636 5.62752 3.58636" fill="#FF4500"/>
<path d="M5.68242 5.69056C5.67125 5.67937 5.65799 5.6705 5.64339 5.66444C5.62879 5.65839 5.61314 5.65526 5.59733 5.65526C5.58152 5.65525 5.56587 5.65836 5.55126 5.66441C5.53666 5.67045 5.52338 5.67931 5.5122 5.69049C5.27668 5.92582 4.8871 6.04024 4.32128 6.04024C4.31967 6.04024 4.31815 6.04064 4.31657 6.04071C4.31499 6.04064 4.31348 6.04024 4.31187 6.04024C3.74605 6.04024 3.35657 5.92582 3.12128 5.69052C3.09862 5.66841 3.06816 5.65612 3.03651 5.65631C3.00485 5.65651 2.97454 5.66916 2.95215 5.69155C2.92977 5.71393 2.9171 5.74424 2.9169 5.77589C2.9167 5.80755 2.92899 5.83801 2.9511 5.86067C3.23382 6.14346 3.67893 6.28091 4.31187 6.28091C4.31348 6.28091 4.31499 6.28047 4.31657 6.28044C4.31815 6.28047 4.31967 6.28091 4.32128 6.28091C4.95412 6.28091 5.39933 6.14346 5.68236 5.86074C5.69354 5.84957 5.70241 5.83631 5.70846 5.82171C5.71451 5.80711 5.71763 5.79147 5.71764 5.77566C5.71764 5.75986 5.71454 5.74421 5.70849 5.72961C5.70245 5.715 5.69359 5.70174 5.68242 5.69056Z" fill="black"/>
</g>
<defs>
<clipPath id="clip0">
<rect width="8.60504" height="12" fill="white"/>
</clipPath>
</defs>
</svg>
