<svg width="12" height="12" viewBox="0 0 12 12" fill="none" xmlns="http://www.w3.org/2000/svg">
<path d="M6.00005 0C2.68673 0 0 2.68627 0 6.00005C0 8.65102 1.71919 10.9001 4.1032 11.6935C4.40306 11.749 4.51317 11.5633 4.51317 11.4048C4.51317 11.2618 4.50755 10.7891 4.50502 10.2878C2.8358 10.6507 2.48358 9.57984 2.48358 9.57984C2.21063 8.88633 1.81734 8.70187 1.81734 8.70187C1.27298 8.3295 1.85841 8.33719 1.85841 8.33719C2.46089 8.37947 2.77814 8.95547 2.77814 8.95547C3.31331 9.87272 4.18181 9.60755 4.52419 9.45422C4.57805 9.06647 4.73353 8.80172 4.90514 8.65191C3.57244 8.50022 2.17148 7.98572 2.17148 5.68669C2.17148 5.03161 2.40586 4.49634 2.78967 4.07616C2.72738 3.92503 2.52202 3.31481 2.8478 2.48831C2.8478 2.48831 3.35166 2.32706 4.49827 3.10336C4.97686 2.97042 5.49014 2.90377 6.00005 2.90147C6.50995 2.90377 7.02366 2.97038 7.50314 3.10336C8.64834 2.32711 9.1515 2.48836 9.1515 2.48836C9.47808 3.31477 9.27262 3.92508 9.21033 4.07616C9.59503 4.49634 9.82781 5.03161 9.82781 5.68669C9.82781 7.9912 8.42419 8.49863 7.08811 8.64717C7.30331 8.83336 7.49508 9.19852 7.49508 9.7583C7.49508 10.5611 7.48814 11.2072 7.48814 11.4048C7.48814 11.5645 7.59614 11.7516 7.90027 11.6926C10.283 10.8984 12 8.65017 12 6.00009C12 2.68627 9.31364 0 6.00005 0ZM2.24723 8.54719C2.23402 8.577 2.18709 8.58595 2.14439 8.56547C2.10084 8.54592 2.07642 8.50528 2.09048 8.47538C2.10342 8.44467 2.15044 8.43609 2.19384 8.45667C2.23744 8.47627 2.26228 8.51728 2.24723 8.54719ZM2.54236 8.81053C2.51377 8.83706 2.4578 8.82473 2.41983 8.78283C2.38059 8.74102 2.37323 8.68505 2.40225 8.65814C2.43178 8.63161 2.48602 8.64403 2.52534 8.68584C2.56463 8.72817 2.57222 8.78372 2.54236 8.81053ZM2.74486 9.14747C2.70806 9.17302 2.64797 9.14906 2.6108 9.09572C2.57405 9.04238 2.57405 8.97839 2.61159 8.95275C2.64886 8.92711 2.70806 8.95017 2.7457 9.00314C2.78236 9.05737 2.78236 9.12136 2.74481 9.14752L2.74486 9.14747ZM3.08723 9.5377C3.05437 9.57398 2.9843 9.56423 2.93302 9.51473C2.88056 9.46636 2.86598 9.39773 2.89898 9.36145C2.93227 9.32508 3.00272 9.3353 3.05438 9.38442C3.10641 9.4327 3.12234 9.50184 3.08723 9.5377ZM3.52983 9.66942C3.5153 9.71644 3.4478 9.73781 3.37987 9.71784C3.312 9.69727 3.26761 9.64223 3.2813 9.59475C3.29541 9.54741 3.36319 9.52519 3.43162 9.54656C3.49941 9.567 3.54394 9.62166 3.52983 9.66947V9.66942ZM4.03345 9.72534C4.03514 9.7748 3.97753 9.81581 3.90619 9.81675C3.83447 9.81834 3.77639 9.77831 3.77559 9.72956C3.77559 9.67964 3.83194 9.639 3.9037 9.63778C3.97505 9.63638 4.03345 9.67612 4.03345 9.72534ZM4.52822 9.70636C4.53675 9.75464 4.4872 9.80423 4.41633 9.81745C4.34672 9.83016 4.28222 9.80034 4.27336 9.75248C4.26473 9.70298 4.31522 9.65339 4.38473 9.64059C4.4557 9.62827 4.51917 9.65728 4.52822 9.70636Z" fill="white"/>
</svg>
