<svg width="11" height="12" viewBox="0 0 11 12" fill="none" xmlns="http://www.w3.org/2000/svg">
<path d="M9.25642 0H1.22826C0.551222 0 0 0.551181 0 1.2342V9.33432C0 10.0173 0.551181 10.5685 1.22822 10.5685H8.02227L7.7047 9.46014L8.47159 10.1731L9.19651 10.8441L10.4846 11.9824V1.2342C10.4846 0.551181 9.93346 0 9.25642 0ZM6.94382 7.82457C6.94382 7.82457 6.72815 7.56692 6.5484 7.33925C7.33327 7.11756 7.63282 6.62629 7.63282 6.62629C7.38717 6.78807 7.15352 6.90192 6.94382 6.97974C6.64427 7.1056 6.35668 7.18943 6.07511 7.23739C5.49993 7.34523 4.97271 7.31529 4.52339 7.23141C4.18186 7.16547 3.88829 7.06964 3.64268 6.9738C3.50486 6.91986 3.35509 6.85397 3.20527 6.77009C3.18733 6.75809 3.16935 6.75211 3.15137 6.74011C3.13941 6.73413 3.13339 6.72815 3.12741 6.72217C3.01958 6.66225 2.95966 6.62031 2.95966 6.62031C2.95966 6.62031 3.24725 7.09962 4.00812 7.32725C3.82841 7.55496 3.60672 7.82453 3.60672 7.82453C2.28262 7.78259 1.7794 6.91388 1.7794 6.91388C1.7794 4.98471 2.64213 3.42098 2.64213 3.42098C3.50486 2.77392 4.32565 2.7919 4.32565 2.7919L4.38557 2.86382C3.30717 3.17529 2.80988 3.64865 2.80988 3.64865C2.80988 3.64865 2.94168 3.57678 3.16333 3.47492C3.80441 3.19331 4.31369 3.11545 4.52339 3.09747C4.5593 3.09145 4.58928 3.08547 4.62524 3.08547C5.02673 3.03317 5.43304 3.02916 5.83548 3.07352C6.4046 3.13941 7.01574 3.30717 7.6388 3.64865C7.6388 3.64865 7.16552 3.19933 6.14699 2.88778L6.23087 2.79195C6.23087 2.79195 7.05166 2.77392 7.91439 3.42102C7.91439 3.42102 8.77716 4.98471 8.77716 6.91388C8.77716 6.91388 8.26788 7.78259 6.94382 7.82453V7.82457ZM4.1579 5.02665C3.81641 5.02665 3.54684 5.3262 3.54684 5.69164C3.54684 6.05713 3.82239 6.35668 4.1579 6.35668C4.49943 6.35668 4.769 6.05713 4.769 5.69164C4.77502 5.3262 4.49943 5.02665 4.15794 5.02665H4.1579ZM6.34472 5.02665C6.0032 5.02665 5.73358 5.3262 5.73358 5.69164C5.73358 6.05713 6.00922 6.35668 6.34472 6.35668C6.68621 6.35668 6.95578 6.05713 6.95578 5.69164C6.95578 5.3262 6.68621 5.02665 6.34472 5.02665Z" fill="#7289DA"/>
</svg>
