<svg width="12" height="12" viewBox="0 0 12 12" fill="none" xmlns="http://www.w3.org/2000/svg">
<g clip-path="url(#clip0)">
<path d="M11.3377 12C11.7034 12 12 11.7035 12 11.3377V0.662297C12 0.296484 11.7034 0 11.3377 0H0.662297C0.296438 0 0 0.296484 0 0.662297V11.3377C0 11.7035 0.296438 12 0.662297 12H11.3377Z" fill="#395185"/>
<path d="M8.27978 12V7.35299H9.83964L10.0732 5.54197H8.27978V4.38566C8.27978 3.86131 8.42542 3.50399 9.17734 3.50399L10.1364 3.50356V1.8838C9.97042 1.86172 9.40117 1.81241 8.73892 1.81241C7.3562 1.81241 6.40961 2.65639 6.40961 4.20636V5.54197H4.84576V7.35299H6.40961V12H8.27978Z" fill="white"/>
</g>
<defs>
<clipPath id="clip0">
<rect width="12" height="12" fill="white"/>
</clipPath>
</defs>
</svg>
