<svg width="12" height="9" viewBox="0 0 12 9" fill="none" xmlns="http://www.w3.org/2000/svg">
<path d="M11.8735 1.81875C11.8735 1.81875 11.7563 0.99375 11.3955 0.628125C10.941 0.15 10.4303 0.15 10.1913 0.121875C8.51859 0 6.00234 0 6.00234 0H5.99766C5.99766 0 3.48145 0 1.7993 0.121875C1.56502 0.15 1.05427 0.15 0.595078 0.628125C0.238969 0.99375 0.121828 1.81875 0.121828 1.81875C0.121828 1.81875 0 2.79375 0 3.76406V4.67344C0 5.64375 0.121828 6.61406 0.121828 6.61406C0.121828 6.61406 0.238969 7.43906 0.599766 7.80469C1.05427 8.28281 1.65403 8.26875 1.92113 8.31562C2.88169 8.40937 5.99766 8.4375 5.99766 8.4375C5.99766 8.4375 8.51855 8.43281 10.196 8.31094C10.4303 8.28281 10.941 8.28281 11.4002 7.80469C11.761 7.43906 11.8782 6.61406 11.8782 6.61406C11.8782 6.61406 12 5.64375 12 4.67344V3.76406C11.9953 2.79375 11.8735 1.81875 11.8735 1.81875ZM4.76067 5.775V2.40469L8.00311 4.09688L4.76062 5.775H4.76067Z" fill="url(#paint0_linear)"/>
<defs>
<linearGradient id="paint0_linear" x1="5.9976" y1="0" x2="5.9976" y2="8.44003" gradientUnits="userSpaceOnUse">
<stop stop-color="#E52D27"/>
<stop offset="1" stop-color="#BF171D"/>
</linearGradient>
</defs>
</svg>
