<svg width="12" height="10" viewBox="0 0 12 10" fill="none" xmlns="http://www.w3.org/2000/svg">
<path d="M12 1.17837C11.5584 1.37823 11.084 1.5133 10.586 1.57407C11.0943 1.26306 11.4847 0.770574 11.6685 0.18378C11.1852 0.4765 10.6565 0.68274 10.1051 0.793588C9.65602 0.305215 9.01622 0 8.30808 0C6.94842 0 5.84606 1.12517 5.84606 2.51292C5.84606 2.7099 5.86786 2.90167 5.90981 3.08565C3.86372 2.98081 2.04966 1.98038 0.835359 0.46C0.623484 0.831148 0.502078 1.26287 0.502078 1.72335C0.502078 2.59522 0.93675 3.36435 1.59731 3.81502C1.20635 3.80253 0.823992 3.69474 0.482156 3.50067C0.482016 3.5112 0.482016 3.52172 0.482016 3.5323C0.482016 4.74986 1.33064 5.76555 2.45686 5.99641C2.09432 6.09705 1.71404 6.11178 1.34508 6.03947C1.65834 7.03785 2.56758 7.76435 3.64486 7.78469C2.80228 8.45866 1.7407 8.86043 0.587297 8.86043C0.388547 8.86043 0.192609 8.84852 0 8.82531C1.08952 9.53832 2.38359 9.95435 3.77391 9.95435C8.30236 9.95435 10.7786 6.12512 10.7786 2.80435C10.7786 2.69536 10.7763 2.58699 10.7715 2.47923C11.2535 2.12358 11.6695 1.68307 12 1.17837Z" fill="#55ACEE"/>
</svg>
