<svg width="12" height="12" viewBox="0 0 12 12" fill="none" xmlns="http://www.w3.org/2000/svg">
<path d="M6 1.08113C7.60205 1.08113 7.7918 1.08722 8.42447 1.11605C9.00947 1.14277 9.32719 1.2405 9.53864 1.32267C9.81867 1.43152 10.0185 1.56155 10.2285 1.7715C10.4385 1.98145 10.5685 2.18133 10.6773 2.46136C10.7595 2.67281 10.8572 2.99053 10.884 3.57548C10.9128 4.2082 10.9189 4.39795 10.9189 6C10.9189 7.60209 10.9128 7.79184 10.884 8.42452C10.8572 9.00952 10.7595 9.32719 10.6773 9.53864C10.5685 9.81867 10.4385 10.0186 10.2285 10.2285C10.0185 10.4385 9.81867 10.5685 9.53864 10.6773C9.32719 10.7595 9.00947 10.8573 8.42447 10.884C7.79189 10.9128 7.60214 10.9189 6 10.9189C4.39781 10.9189 4.20806 10.9128 3.57548 10.884C2.99048 10.8572 2.67281 10.7595 2.46136 10.6773C2.18133 10.5685 1.98141 10.4385 1.77145 10.2285C1.5615 10.0185 1.43147 9.81867 1.32267 9.53864C1.2405 9.32723 1.14272 9.00952 1.11605 8.42452C1.08717 7.79184 1.08108 7.60209 1.08108 6C1.08108 4.39795 1.08717 4.2082 1.11605 3.57553C1.14277 2.99053 1.2405 2.67281 1.32267 2.46136C1.43147 2.18133 1.5615 1.98145 1.77145 1.7715C1.98145 1.5615 2.18133 1.43152 2.46136 1.32267C2.67277 1.2405 2.99048 1.14277 3.57548 1.11605C4.20816 1.08722 4.39791 1.08113 6 1.08113ZM6 0C4.37048 0 4.16616 0.00689062 3.52622 0.0360937C2.88755 0.06525 2.45138 0.166687 2.06977 0.315C1.67517 0.468328 1.34058 0.6735 1.00702 1.00706C0.673453 1.34062 0.468328 1.67522 0.315 2.06977C0.166641 2.45142 0.06525 2.88759 0.0360937 3.52622C0.00689062 4.16616 0 4.37048 0 6C0 7.62952 0.00689062 7.83384 0.0360937 8.47378C0.06525 9.11245 0.166641 9.54862 0.315 9.93023C0.468281 10.3248 0.673453 10.6594 1.00702 10.993C1.34058 11.3265 1.67517 11.5317 2.06977 11.685C2.45142 11.8334 2.88755 11.9347 3.52617 11.9639C4.16616 11.9931 4.37048 12 6 12C7.62952 12 7.83384 11.9931 8.47378 11.9639C9.11241 11.9347 9.54858 11.8334 9.93019 11.685C10.3248 11.5317 10.6594 11.3265 10.9929 10.993C11.3265 10.6594 11.5317 10.3248 11.685 9.93023C11.8333 9.54858 11.9347 9.11245 11.9639 8.47383C11.9931 7.83384 12 7.62952 12 6C12 4.37048 11.9931 4.16616 11.9639 3.52622C11.9347 2.88759 11.8333 2.45142 11.685 2.06981C11.5317 1.67522 11.3265 1.34062 10.9929 1.00706C10.6594 0.6735 10.3248 0.468281 9.93023 0.315C9.54858 0.166687 9.11241 0.06525 8.47378 0.0360937C7.83384 0.00689062 7.62952 0 6 0ZM6 2.91891C4.29834 2.91891 2.91891 4.29844 2.91891 6C2.91891 7.70166 4.29834 9.08109 6 9.08109C7.70161 9.08109 9.08109 7.70166 9.08109 6C9.08109 4.29839 7.70161 2.91891 6 2.91891ZM6 8.00002C4.89544 8.00002 3.99998 7.10456 3.99998 6C3.99998 4.89544 4.89544 3.99998 6 3.99998C7.10456 3.99998 8.00002 4.89544 8.00002 6C8.00002 7.10456 7.10456 8.00002 6 8.00002ZM9.92278 2.79717C9.92278 3.19486 9.60047 3.51717 9.20278 3.51717C8.80514 3.51717 8.48278 3.19486 8.48278 2.79717C8.48278 2.39953 8.80514 2.07717 9.20278 2.07717C9.60047 2.07717 9.92278 2.39953 9.92278 2.79717Z" fill="white"/>
</svg>
