<svg width="64" height="64" viewBox="0 0 64 64" fill="none" xmlns="http://www.w3.org/2000/svg">
<g clip-path="url(#clip0)">
<g filter="url(#filter0_d)">
<path d="M2.64835 43.9002C1.00661 43.0752 0 41.6216 0 40.0431V31.2707C0 30.9297 0.109217 30.6072 0.306087 30.3202C0.941217 29.4229 2.36383 29.1181 3.45809 29.6383L27.5993 41.1735C29.0003 41.8547 29.8755 43.0929 29.8755 44.4204V53.4977C29.8755 53.9102 29.7447 54.3227 29.4817 54.682C28.6936 55.7402 26.9864 56.0811 25.6953 55.4354L2.64835 43.9002ZM38.6303 27.252C40.0313 27.9338 40.9071 29.172 40.9071 30.4995V48.9233C40.9071 49.4619 40.5565 49.9637 39.9659 50.233L34.6908 52.6904C34.6229 52.7252 34.549 52.7494 34.4723 52.762V42.5366C34.4723 41.209 33.6188 39.9892 32.2393 39.3074L11.0539 28.9204V17.3497C11.0539 17.0088 11.1631 16.6856 11.36 16.3992C11.9944 15.5019 13.4177 15.1972 14.5113 15.7174L38.631 27.252H38.6303ZM49.1798 13.6535C50.6031 14.3183 51.4783 15.5742 51.4783 16.9188V43.8286C51.4783 44.3843 51.1061 44.8868 50.5155 45.1561L45.5033 47.3803V28.6334C45.5033 27.3058 44.6497 26.086 43.2703 25.4042L21.6035 14.7485V3.78741C21.6035 3.4465 21.7127 3.12333 21.9096 2.83692C22.5447 1.93965 23.9673 1.63486 25.0609 2.15509L49.1805 13.6542L49.1798 13.6535Z" fill="#00D395"/>
</g>
</g>
<defs>
<filter id="filter0_d" x="0" y="-1.09876" width="69.4783" height="69.8612" filterUnits="userSpaceOnUse" color-interpolation-filters="sRGB">
<feFlood flood-opacity="0" result="BackgroundImageFix"/>
<feColorMatrix in="SourceAlpha" type="matrix" values="0 0 0 0 0 0 0 0 0 0 0 0 0 0 0 0 0 0 127 0"/>
<feOffset dx="10" dy="5"/>
<feGaussianBlur stdDeviation="4"/>
<feColorMatrix type="matrix" values="0 0 0 0 0 0 0 0 0 0 0 0 0 0 0 0 0 0 0.4 0"/>
<feBlend mode="normal" in2="BackgroundImageFix" result="effect1_dropShadow"/>
<feBlend mode="normal" in="SourceGraphic" in2="effect1_dropShadow" result="shape"/>
</filter>
<clipPath id="clip0">
<rect width="64" height="64" fill="white"/>
</clipPath>
</defs>
</svg>
