<svg width="64" height="64" viewBox="0 0 64 64" fill="none" xmlns="http://www.w3.org/2000/svg">
<path d="M30.9984 0.023798C28.3298 0.230907 25.909 1.66709 24.4253 3.92153C23.7123 5.00461 23.2913 6.13522 23.0842 7.52048C23.0129 7.98902 23.0231 9.35051 23.1012 9.86319C23.5086 12.559 25.1112 14.8746 27.481 16.1919C29.9561 17.5636 32.9677 17.6315 35.4869 16.3651C38.1352 15.0307 39.9109 12.4945 40.2334 9.57459C40.2911 9.0687 40.2809 8.04334 40.2164 7.55443C39.8294 4.63792 38.0639 2.17638 35.4326 0.882793C34.4548 0.404064 33.5109 0.139236 32.4075 0.0339851C32.0577 0.00342751 31.3482 -0.00336266 30.9984 0.023798ZM32.4244 4.12524C33.3377 4.27463 34.1967 4.7228 34.886 5.41543C35.7246 6.25066 36.1727 7.2896 36.2169 8.48812C36.244 9.24186 36.1082 9.91072 35.7891 10.5796C35.1678 11.8834 34.0575 12.7695 32.6146 13.1124C32.1936 13.2143 31.1988 13.2211 30.7608 13.1294C29.8746 12.9393 29.1277 12.5454 28.486 11.9275C27.5727 11.0549 27.0838 9.90733 27.0838 8.6409C27.0804 7.87698 27.2332 7.22849 27.5659 6.5766C28.228 5.27283 29.4163 4.39347 30.8796 4.12524C31.2157 4.06073 32.034 4.06413 32.4244 4.12524Z" fill="white"/>
<path d="M10.7084 11.5472C9.0855 11.6932 7.58142 12.2738 6.2471 13.2686C5.74461 13.6455 4.95353 14.4366 4.57666 14.939C3.65316 16.1749 3.09295 17.5466 2.88244 19.0812C2.82133 19.5022 2.82133 20.7992 2.88244 21.2202C3.01486 22.1879 3.29666 23.1148 3.70069 23.9296C4.17263 24.8735 4.63098 25.5152 5.36435 26.2452C6.70206 27.5829 8.32498 28.4045 10.2025 28.6965C10.8137 28.7916 12.0326 28.7984 12.6063 28.7135C14.5552 28.4181 16.1917 27.6032 17.5566 26.2452C18.8977 24.9108 19.7567 23.1725 20.0181 21.2542C20.0962 20.6804 20.0962 19.6211 20.0181 19.0473C19.6243 16.1545 17.852 13.6794 15.2648 12.413C14.983 12.2738 14.579 12.0972 14.3651 12.0192C13.2412 11.6117 11.9069 11.4386 10.7084 11.5472ZM12.569 15.7132C14.0968 16.1104 15.2987 17.2274 15.7978 18.7179C15.971 19.2238 16.0083 19.492 16.0083 20.1507C16.0083 20.8094 15.971 21.0742 15.8012 21.5835C15.3055 23.0706 14.0629 24.2148 12.5249 24.6019C12.0393 24.7241 11.2347 24.7513 10.7254 24.6664C8.80031 24.3472 7.27585 22.8397 6.94312 20.9316C6.87522 20.531 6.87522 19.7705 6.94312 19.3698C7.23511 17.6994 8.47097 16.2903 10.0837 15.7879C10.6201 15.6181 10.8816 15.5841 11.5606 15.5977C12.1106 15.6079 12.2125 15.6215 12.569 15.7132Z" fill="white"/>
<path d="M51.75 11.5438C51.0404 11.6151 50.161 11.8086 49.5533 12.0327C48.7758 12.3213 47.747 12.9019 47.1427 13.3908C45.3772 14.8202 44.233 16.8404 43.9546 19.0133C43.8154 20.1168 43.8697 21.1625 44.1243 22.198C44.8984 25.359 47.4414 27.8613 50.599 28.5675C51.3256 28.7305 51.6719 28.7678 52.5071 28.7678C53.1454 28.7712 53.3763 28.7576 53.7633 28.6965C55.6375 28.4045 57.2672 27.5795 58.6015 26.2451C59.3382 25.5084 59.8 24.8667 60.2685 23.9194C60.6793 23.0808 60.9442 22.2116 61.0868 21.2032C61.1411 20.806 61.1411 19.4954 61.0868 19.0982C60.9476 18.1136 60.6861 17.2376 60.2889 16.4194C59.8305 15.4755 59.3484 14.7998 58.6049 14.0529C57.8647 13.3161 57.2162 12.8544 56.2758 12.3926C55.4439 11.9818 54.68 11.7441 53.7701 11.6083C53.2506 11.5302 52.2219 11.4997 51.75 11.5438ZM53.2744 15.6385C54.9245 15.9135 56.3165 17.1086 56.8496 18.7077C57.0159 19.2034 57.077 19.5871 57.077 20.1507C57.077 20.7143 57.0159 21.098 56.8496 21.5937C56.3097 23.2064 54.9245 24.388 53.2404 24.6664C52.7006 24.758 51.9231 24.7241 51.4036 24.5883C49.3428 24.0518 47.9405 22.2558 47.9405 20.1507C47.9405 18.9182 48.4057 17.8012 49.2816 16.9219C49.9573 16.2428 50.7857 15.8116 51.7432 15.6351C52.0997 15.5706 52.884 15.5706 53.2744 15.6385Z" fill="white"/>
<path d="M27.1211 21.8991C26.7136 21.9704 26.2519 22.1606 25.9327 22.3948C25.6441 22.6087 25.3114 22.9992 25.1484 23.3184C24.9074 23.7801 24.8395 24.0687 24.8395 24.5984C24.8395 25.128 24.9074 25.4132 25.1484 25.8852C25.2809 26.1364 25.3657 26.2519 25.634 26.5167C26.0719 26.9513 26.4794 27.172 27.0532 27.284C28.306 27.5251 29.603 26.8189 30.0851 25.6339C30.428 24.7919 30.3227 23.8107 29.8135 23.0569C29.6505 22.8125 29.2702 22.4492 29.0122 22.2896C28.4554 21.9399 27.7424 21.7939 27.1211 21.8991Z" fill="white"/>
<path d="M35.3102 21.9128C34.2136 22.1471 33.3784 22.9755 33.1577 24.0484C32.8759 25.4065 33.6703 26.7612 35.0047 27.2026C35.3034 27.3011 35.3645 27.3079 35.8025 27.3113C36.339 27.3146 36.5563 27.2705 36.9637 27.0804C37.7208 26.7205 38.2471 26.1025 38.4745 25.3047C38.5832 24.9278 38.5832 24.2691 38.4745 23.8922C38.3455 23.4373 38.1248 23.0536 37.7921 22.7039C37.456 22.3508 37.0486 22.103 36.563 21.9671C36.2371 21.8755 35.6192 21.8483 35.3102 21.9128Z" fill="white"/>
<path d="M23.1893 28.8763C22.1708 29.1038 21.3763 29.8576 21.0979 30.8659C21.0504 31.0289 21.0368 31.2055 21.0368 31.5755C21.0368 32.0407 21.0436 32.0848 21.1454 32.3904C21.305 32.8555 21.485 33.1373 21.8449 33.4938C22.198 33.8436 22.5714 34.0608 23.0366 34.1967C23.3931 34.2951 24.0721 34.3053 24.4116 34.2102C25.9836 33.779 26.8392 32.1935 26.3265 30.6622C26.1941 30.2684 26.0006 29.9662 25.6543 29.6233C25.291 29.2634 25.0771 29.1276 24.6085 28.968C24.2996 28.8628 24.2147 28.8492 23.8378 28.839C23.5458 28.8288 23.3387 28.8424 23.1893 28.8763Z" fill="white"/>
<path d="M39.7207 28.8728C39.388 28.9441 39.0621 29.0833 38.7497 29.2871C37.6191 30.034 37.2151 31.5211 37.8092 32.7468C38.3321 33.8197 39.5102 34.4411 40.6748 34.2577C41.561 34.1151 42.3045 33.5753 42.6984 32.7808C42.9021 32.37 42.9836 32.0203 42.987 31.5857C42.987 31.3955 42.9768 31.1816 42.9632 31.1103C42.7866 30.0748 42.0193 29.2158 41.0143 28.9272C40.6884 28.8321 40.0433 28.8083 39.7207 28.8728Z" fill="white"/>
<path d="M10.8477 34.1796C8.79363 34.346 6.97039 35.1541 5.51384 36.5427C4.07766 37.9144 3.20169 39.612 2.89612 41.6152C2.82482 42.0803 2.81464 43.4045 2.87914 43.8493C3.02514 44.8644 3.28657 45.7268 3.69739 46.5654C4.00296 47.1834 4.16933 47.455 4.58015 48.0084C4.8993 48.4362 5.60212 49.1628 6.02312 49.5023C6.69877 50.049 7.69697 50.616 8.50164 50.9113C9.57453 51.3052 10.8919 51.4919 12.0123 51.4104C12.8407 51.3459 13.4009 51.2373 14.1581 50.9894C16.7554 50.1406 18.8265 48.0492 19.6753 45.428C19.9571 44.5487 20.076 43.7847 20.076 42.8137C20.0794 41.7849 19.9605 41.0346 19.6414 40.0771C19.2238 38.8107 18.5379 37.6903 17.5873 36.7328C16.1137 35.2457 14.2769 34.3799 12.1889 34.1932C11.829 34.1593 11.1703 34.1525 10.8477 34.1796ZM12.2262 38.2845C13.4485 38.4882 14.5621 39.2148 15.2581 40.2605C15.5943 40.7664 15.8082 41.2689 15.9406 41.8732C16.0255 42.2535 16.0458 43.0683 15.9779 43.4826C15.7063 45.2141 14.4942 46.63 12.8238 47.163C12.3586 47.3124 12.0938 47.3463 11.4249 47.3463C10.8409 47.3463 10.7459 47.3362 10.4233 47.2547C9.948 47.1358 9.58132 46.9898 9.21464 46.7827C8.01273 46.0935 7.1775 44.9154 6.94323 43.5776C6.87533 43.1804 6.87193 42.4131 6.94323 42.0226C7.19448 40.6 8.11798 39.354 9.40477 38.7055C9.86991 38.4746 10.2807 38.3456 10.8647 38.2539C11.099 38.2166 11.9308 38.2335 12.2262 38.2845Z" fill="white"/>
<path d="M51.7262 34.1899C49.5193 34.4139 47.5298 35.4189 46.0868 37.0317C43.2654 40.196 43.133 44.8678 45.771 48.1781C46.7964 49.4683 48.2495 50.4801 49.8079 50.9894C50.5685 51.2406 51.1355 51.3493 51.9673 51.4104C52.8534 51.4749 53.7362 51.39 54.6835 51.149C56.2419 50.7517 57.7663 49.835 58.863 48.6331C59.4537 47.9846 59.851 47.404 60.2482 46.5994C60.6828 45.7234 60.9408 44.878 61.0868 43.8492C61.1411 43.452 61.1411 42.1414 61.0868 41.7442C60.8899 40.3691 60.4112 39.0858 59.6982 38.0197C58.3197 35.9588 56.1536 34.5973 53.6954 34.2374C53.2744 34.1763 52.1371 34.1491 51.7262 34.1899ZM53.4578 38.3116C54.3405 38.512 55.0875 38.9194 55.7258 39.5475C56.4014 40.2164 56.8598 41.0889 57.0228 42.0226C57.0907 42.4165 57.0907 43.1634 57.0228 43.5674C56.7919 44.9119 55.9567 46.0901 54.7514 46.7827C54.3847 46.9898 54.018 47.1358 53.5427 47.2546C53.2201 47.3361 53.1251 47.3463 52.5411 47.3463C51.8722 47.3463 51.6074 47.3124 51.1423 47.163C49.4718 46.6299 48.2597 45.2141 47.9881 43.4826C47.9202 43.0649 47.9406 42.2535 48.0255 41.863C48.2224 40.9633 48.64 40.2062 49.2953 39.5543C49.9811 38.8753 50.7858 38.4542 51.7262 38.2811C52.0861 38.2166 53.1217 38.2336 53.4578 38.3116Z" fill="white"/>
<path d="M27.0735 36.2303C26.9785 36.2473 26.7679 36.3084 26.605 36.3661C25.8648 36.6344 25.2231 37.2896 24.9753 38.0298C24.4626 39.5611 25.3182 41.1467 26.8902 41.5778C27.2297 41.6729 27.9087 41.6627 28.2618 41.5643C28.7372 41.4285 29.1072 41.2112 29.4569 40.8615C29.9866 40.3386 30.2412 39.7784 30.2752 39.0654C30.3431 37.7005 29.4332 36.5223 28.1023 36.2473C27.8272 36.1896 27.3587 36.1828 27.0735 36.2303Z" fill="white"/>
<path d="M35.9826 36.227C35.7449 36.2678 35.4937 36.356 35.2255 36.4884C34.9199 36.6412 34.7264 36.7838 34.4921 37.0317C34.156 37.3848 33.9726 37.7039 33.83 38.186C33.7112 38.5867 33.701 39.191 33.813 39.6052C34.1763 40.9871 35.5446 41.863 36.9401 41.6118C37.9349 41.4318 38.7362 40.7256 39.0689 39.741C39.1504 39.4932 39.1606 39.4219 39.1606 38.9432C39.164 38.4814 39.1538 38.3864 39.0859 38.1623C38.7973 37.2422 38.1046 36.553 37.2117 36.2949C36.9265 36.2134 36.2576 36.1761 35.9826 36.227Z" fill="white"/>
<path d="M30.9509 46.7524C29.8407 46.8474 28.7882 47.1462 27.79 47.6521C26.8699 48.1173 26.1195 48.6707 25.4201 49.3972C24.3777 50.4871 23.6308 51.835 23.2777 53.2712C23.1079 53.9672 23.0536 54.3814 23.0298 55.1385C22.9585 57.5865 23.882 59.8409 25.6578 61.5555C27.2365 63.0833 29.1684 63.905 31.3719 63.9864C34.1594 64.0917 36.8858 62.7778 38.563 60.5233C39.5884 59.1483 40.1656 57.5695 40.2641 55.8719C40.5323 51.3189 37.2016 47.3364 32.6621 46.7863C32.2343 46.7354 31.3719 46.7184 30.9509 46.7524ZM32.3939 50.847C34.3699 51.1831 35.874 52.7178 36.1796 54.7141C36.2441 55.1284 36.2271 55.8413 36.1422 56.242C35.8469 57.6578 34.9437 58.8325 33.6603 59.4776C33.3446 59.6372 32.764 59.8205 32.3803 59.8782C31.9084 59.9563 31.0324 59.9292 30.625 59.8273C29.2431 59.481 28.1329 58.5949 27.5353 57.3624C27.0192 56.3031 26.9344 55.0672 27.301 53.94C27.8137 52.3613 29.2058 51.1492 30.8457 50.8572C31.2837 50.7791 31.9729 50.7757 32.3939 50.847Z" fill="white"/>
</svg>
